<svg xmlns="http://www.w3.org/2000/svg" viewBox="0 0 80 80">
  <path
    d="m20.064 31.582 47.044-17.386a.999.999 0 0 0 .591-1.284l-2.682-7.259a1 1 0 0 0-1.285-.591L47.33 11.123l-.006.002-9.073 3.354-9.066 3.35-.016.006L9.295 25.18a.999.999 0 0 0-.59 1.284l2.618 7.086V74a1 1 0 0 0 1 1h58.035a1 1 0 0 0 1-1V33.375a1 1 0 0 0-1-1H17.917l2.146-.793zM45.97 19.875l-7 2.587.534-6.314 7-2.587-.534 6.314zm2.606-7.08 7-2.587-.533 6.314-7 2.588.533-6.315zM36.9 23.228l-7 2.587.533-6.314 7-2.587-.533 6.314zm-9.073 3.353-7 2.587.533-6.314 7-2.588-.533 6.315zm37.65-13.914-8.36 3.09.534-6.315 5.837-2.157 1.99 5.382zM19.288 23.619l-.534 6.315-5.837 2.157-1.99-5.382 8.361-3.09zm.26 10.756 2.69 5.738h-8.914v-5.738h6.223zm9.672 0 2.69 5.738h-7.465l-2.69-5.738h7.465zm9.672 0 2.69 5.738h-7.464l-2.69-5.738h7.464zm9.673 0 2.69 5.738h-7.465l-2.69-5.738h7.465zm9.672 0 2.69 5.738h-7.464l-2.69-5.738h7.464zM69.358 73H13.323V42.113h56.035V73zm0-32.887h-6.224l-2.69-5.738h8.914v5.738z"/>
  <path
    d="M41.34 46.84c-5.878 0-10.66 4.782-10.66 10.66s4.782 10.66 10.66 10.66S52 63.378 52 57.5s-4.782-10.66-10.66-10.66zm0 19.32c-4.775 0-8.66-3.885-8.66-8.66s3.885-8.66 8.66-8.66S50 52.725 50 57.5s-3.885 8.66-8.66 8.66z"/>
  <path
    d="m45.799 56.645-6.563-3.97a1 1 0 0 0-1.517.856v7.938a1 1 0 0 0 1.517.855l6.563-3.969a1 1 0 0 0 0-1.71zm-6.08 3.05v-4.39l3.63 2.195-3.63 2.195z"/>
</svg>
