<svg xmlns="http://www.w3.org/2000/svg" enable-background="new 0 0 64 64" viewBox="0 0 64 64">
  <path d="M32,26.17c-5.09,0-9.23-4.14-9.23-9.23c0-5.09,4.14-9.23,9.23-9.23s9.23,4.14,9.23,9.23
				C41.23,22.03,37.09,26.17,32,26.17z M32,8.69c-4.55,0-8.25,3.7-8.25,8.25c0,4.55,3.7,8.25,8.25,8.25s8.25-3.7,8.25-8.25
				C40.25,12.39,36.55,8.69,32,8.69z"/>
  <path d="M30.06,21.74c-0.08,0-0.15-0.02-0.22-0.05c-0.16-0.08-0.27-0.25-0.27-0.44v-8.63c0-0.18,0.1-0.35,0.27-0.44
				c0.16-0.08,0.36-0.07,0.51,0.04l5.99,4.31c0.13,0.09,0.2,0.24,0.2,0.4c0,0.16-0.08,0.31-0.2,0.4l-5.99,4.31
				C30.26,21.71,30.16,21.74,30.06,21.74z M30.56,13.58v6.7l4.66-3.35L30.56,13.58z"/>
  <path
    d="M54.89 33.87H9.11c-1.95 0-3.54-1.59-3.54-3.54V3.54C5.56 1.59 7.15 0 9.11 0h45.79c1.95 0 3.54 1.59 3.54 3.54v26.79C58.44 32.29 56.85 33.87 54.89 33.87zM9.11.98c-1.41 0-2.56 1.15-2.56 2.56v26.79c0 1.41 1.15 2.56 2.56 2.56h45.79c1.41 0 2.56-1.15 2.56-2.56V3.54c0-1.41-1.15-2.56-2.56-2.56H9.11zM12.24 46.98c-3.19 0-5.79-2.6-5.79-5.79 0-3.19 2.6-5.79 5.79-5.79s5.79 2.6 5.79 5.79C18.03 44.38 15.44 46.98 12.24 46.98zM12.24 36.38c-2.65 0-4.81 2.16-4.81 4.81 0 2.65 2.16 4.81 4.81 4.81s4.81-2.16 4.81-4.81C17.05 38.53 14.89 36.38 12.24 36.38zM20.21 64H4.28c-.27 0-.49-.22-.49-.49V52.85c0-2.76 2.25-5.01 5-5.01h6.9c2.76 0 5.01 2.25 5.01 5.01v10.66C20.7 63.78 20.48 64 20.21 64zM4.77 63.02h14.94V52.85c0-2.22-1.8-4.02-4.02-4.02h-6.9c-2.22 0-4.02 1.8-4.02 4.02V63.02zM32 46.98c-3.19 0-5.79-2.6-5.79-5.79 0-3.19 2.6-5.79 5.79-5.79s5.79 2.6 5.79 5.79C37.79 44.38 35.19 46.98 32 46.98zM32 36.38c-2.65 0-4.81 2.16-4.81 4.81 0 2.65 2.16 4.81 4.81 4.81s4.81-2.16 4.81-4.81C36.81 38.53 34.65 36.38 32 36.38zM39.96 64H24.04c-.27 0-.49-.22-.49-.49V52.85c0-2.76 2.25-5.01 5.01-5.01h6.9c2.76 0 5.01 2.25 5.01 5.01v10.66C40.46 63.78 40.24 64 39.96 64zM24.53 63.02h14.94V52.85c0-2.22-1.8-4.02-4.02-4.02h-6.9c-2.22 0-4.02 1.8-4.02 4.02V63.02zM51.76 46.98c-3.19 0-5.79-2.6-5.79-5.79 0-3.19 2.6-5.79 5.79-5.79 3.19 0 5.79 2.6 5.79 5.79C57.55 44.38 54.95 46.98 51.76 46.98zM51.76 36.38c-2.65 0-4.81 2.16-4.81 4.81 0 2.65 2.16 4.81 4.81 4.81s4.81-2.16 4.81-4.81C56.56 38.53 54.41 36.38 51.76 36.38zM59.72 64H43.79c-.27 0-.49-.22-.49-.49V52.85c0-2.76 2.25-5.01 5.01-5.01h6.9c2.76 0 5.01 2.25 5.01 5.01v10.66C60.21 63.78 59.99 64 59.72 64zM44.29 63.02h14.95V52.85c0-2.22-1.8-4.02-4.02-4.02h-6.9c-2.22 0-4.02 1.8-4.02 4.02V63.02z"/>
</svg>
