<svg xmlns="http://www.w3.org/2000/svg" viewBox="0 0 64 64">
  <path
    d="M56,16V15H8v1a5.21,5.21,0,0,1-5,5.4H2V42.6H3A5.21,5.21,0,0,1,8,48v1H56V48a5.21,5.21,0,0,1,5-5.4h1V21.4H61A5.21,5.21,0,0,1,56,16Zm4,24.68A7.22,7.22,0,0,0,54.06,47H49V45H47v2H9.94A7.22,7.22,0,0,0,4,40.68V23.32A7.22,7.22,0,0,0,9.94,17H47v2h2V17h5.06A7.22,7.22,0,0,0,60,23.32Z"/>
  <rect width="2" height="4" x="47" y="21"/>
  <rect width="2" height="4" x="47" y="27"/>
  <rect width="2" height="4" x="47" y="33"/>
  <rect width="2" height="4" x="47" y="39"/>
  <path
    d="M31.15,28.9l-8.71-1.27-3.89-7.89-3.9,7.89L6,28.9,12.25,35l-1.49,8.67,7.79-4.09,7.79,4.09L24.85,35Zm-12.6,8.46-5.13,2.69,1-5.71-4.16-4.05L16,29.46l2.57-5.2,2.56,5.2,5.74.83L22.7,34.34l1,5.71Z"/>
  <rect width="16" height="2" x="29" y="39"/>
  <rect width="10" height="2" x="32" y="35"/>
  <rect width="16" height="2" x="29" y="43"/>
  <rect width="16" height="2" x="29" y="23"/>
  <rect width="10" height="2" x="32" y="19"/>
  <rect width="10" height="2" x="32" y="27"/>
</svg>
