<svg xmlns="http://www.w3.org/2000/svg" viewBox="0 0 24 24">
  <circle cx="12" cy="12" r="11.5" fill="none" stroke="#303c42" stroke-linecap="round" stroke-linejoin="round"/>
  <circle cx="12" cy="6" r="2.5" fill="none" stroke="#303c42" stroke-linecap="round" stroke-linejoin="round"/>
  <circle cx="6.3" cy="10.2" r="2.5" fill="none" stroke="#303c42" stroke-linecap="round" stroke-linejoin="round"
          transform="rotate(-72.002 6.296 10.154)"/>
  <circle cx="8.5" cy="16.9" r="2.5" fill="none" stroke="#303c42" stroke-linecap="round" stroke-linejoin="round"
          transform="rotate(-53.999 8.47 16.852)"/>
  <circle cx="15.5" cy="16.9" r="2.5" fill="none" stroke="#303c42" stroke-linecap="round" stroke-linejoin="round"
          transform="rotate(-36.002 15.527 16.853)"/>
  <circle cx="17.7" cy="10.1" r="2.5" fill="none" stroke="#303c42" stroke-linecap="round" stroke-linejoin="round"
          transform="rotate(-18.071 17.702 10.123)"/>
  <circle cx="12" cy="12" r=".5" fill="none" stroke="#303c42" stroke-linecap="round" stroke-linejoin="round"/>
  <path fill="none" stroke="#303c42" stroke-linecap="round" stroke-linejoin="round"
        d="M14.3 7c-1.5-.7-3.1-.7-4.6 0m-2.5 7.7c.8 1.4 2.1 2.4 3.7 2.7M8 8.3c-1 1-1.5 2.3-1.5 3.7v.6m11 0V12c0-1.4-.5-2.7-1.5-3.7m-2.9 9.1c1.6-.3 2.9-1.3 3.7-2.7m-.2 7.9c2.2.6 4.5.9 6.9.9M7 14.8c.6 1.6 1.6 3 2.9 4.1"/>
</svg>
