<svg xmlns="http://www.w3.org/2000/svg" enable-background="new 0 0 98 98" viewBox="0 0 98 98">
  <path
    d="M17.042 19.3196c-.9048 0-1.7671-.2095-2.5635-.6226l-.9209 1.7754c1.0679.5542 2.2729.8472 3.4844.8472V19.3196zM59.5918 18.8816c-.687.2905-1.4175.438-2.1709.438v2c1.0225 0 2.0151-.2007 2.9502-.5962L59.5918 18.8816z"/>
  <path d="M2.3588,25.12l0.002,0.1566l0.0581,0.0557l9.5161,71.0488c15.0623-0.0001,62.6189-0.0003,77.6685-0.0005l1.4068-17.2339
		h0.0009l0.9482-11.6275l1.305-15.9863H97v-8.5767h-1.9395v-2.417c0-1.8628-1.5156-3.3784-3.3784-3.3784H79.5455l3.1362-13.2187
		l6.6875-2.9673l-2.4082-5.4409l-9.3916,4.1699l-4.136,17.457H70.64l1.6442-12.2788l0.0011-0.0231
		c0.7638-1.2562,1.1859-2.6758,1.1859-4.157c0-4.4585-3.6274-8.0859-8.0859-8.0859c-0.1904,0-0.3794,0.0068-0.5679,0.02
		c-1.0696-4.302-5.4223-6.9066-9.6787-5.9053c-2.161-4.4386-7.8757-5.9255-11.9404-2.9922
		c-3.2668-3.0022-8.3394-2.7797-11.3496,0.4419c-3.9342-3.42-10.1873-2.2329-12.5161,2.5503
		c-4.2642-1.0031-8.6111,1.6113-9.6787,5.9053c-0.1885-0.0132-0.3774-0.02-0.5679-0.02C4.6274,12.616,1,16.2434,1,20.7019
		C1,22.2876,1.4813,23.8007,2.3588,25.12z M13.6851,94.3811L4.4927,25.7493h9.1599l6.1559,68.6318H13.6851z M21.8169,94.3811
		l-6.1563-68.6318h9.3005L26.056,50.175c-2.4077,2.7347-3.7401,6.223-3.7401,9.8877c0,4.1122,1.7088,8.0378,4.6777,10.8577
		l1.0522,23.4606H21.8169z M36.3228,94.3811h-6.2751l-0.9768-21.7832c2.0593,1.3608,4.5946,2.2596,7.252,2.4352V94.3811z
		 M44.5984,94.3811h-6.2756v-19.348c2.5277-0.167,5.0522-0.9824,7.252-2.4352L44.5984,94.3811z M37.3228,73.0696
		c-0.4023,0-0.8026-0.0184-1.1995-0.0549c-6.7401-0.6192-11.8073-6.3137-11.8073-12.9519c0-7.2969,5.9447-12.9971,13.0068-12.9971
		c7.1304,0,12.9976,5.748,12.9976,12.9971C50.3203,67.1306,44.6101,73.0696,37.3228,73.0696z M26.9634,25.7498h9.3594v19.3587
		c-3.0619,0.2075-6.014,1.3709-8.3472,3.2224L26.9634,25.7498z M38.3228,45.1072V25.7498h9.3599l-1.0122,22.5767
		C44.4076,46.5173,41.4823,45.3111,38.3228,45.1072z M52.8218,94.3811h-6.2216L47.652,70.919
		c2.9641-2.8251,4.6683-6.749,4.6683-10.8563c0-3.6706-1.3289-7.1584-3.7306-9.8878l1.095-24.4257h9.2938l-1.097,12.2502
		c-0.7284,0.634-1.1681,1.5641-1.1681,2.5398v2.417h-1.9321v8.5767h1.8784L52.8218,94.3811z M54.83,94.3811l3.6516-40.7687
		l3.0121,36.9435l0.3075,3.8252H54.83z M89.4181,74.0737l-0.2508,3.0731h-9.3109c-2.6577,0-4.8198-2.1621-4.8198-4.8193
		c0-2.6747,2.1662-4.8198,4.8198-4.8198h10.0972L89.4181,74.0737z M90.1172,65.5076H79.8564c-3.7608,0-6.8198,3.0445-6.8198,6.8198
		c0,3.7603,3.0596,6.8193,6.8198,6.8193h9.1476l-1.2433,15.2339H63.8076L60.3188,51.533h30.939L90.1172,65.5076z M95,44.9563v4.5767
		c-0.4969-0.0001-40.7353-0.0018-38.2188,0v-4.5767H95z M79.2871,21.1296l6.6553-2.9551l0.7891,1.7827l-5.7666,2.5591
		l-3.4752,14.6445h-2.0008L79.2871,21.1296z M91.6821,39.1609c0.7603,0,1.3784,0.6182,1.3784,1.3784v2.4146H58.7134v-2.4146
		c0-0.4692,0.2495-0.9146,0.6689-1.1743c0.2061-0.1333,0.4551-0.2041,0.7192-0.2041H91.6821z M59.9639,37.1705l1.0229-11.4212h9.163
		l-1.528,11.4116h-8.5204C60.0551,37.1609,60.0101,37.1686,59.9639,37.1705z M9.5219,14.6348
		c0.216,1.8108,1.0781,3.5012,2.4459,4.735l1.3398-1.4854c-1.1522-1.0388-1.8176-2.5174-1.8392-4.0656
		c0.4977-3.9012,4.5199-6.2611,8.0926-4.9344l0.9595,0.3564l0.334-0.9678c1.517-4.397,7.3104-5.472,10.3101-1.9487l0.8447,0.9922
		l0.7397-1.0728c2.2676-3.2881,7.0338-3.5211,9.6079-0.5015l0.6748,0.7915l0.7642-0.7056c3.2192-2.9715,8.4139-1.6329,9.8208,2.4448
		l0.334,0.9678l0.9595-0.3564c3.5325-1.3118,7.5657,0.9903,8.0859,4.9033c-0.0131,1.5857-0.6996,3.0938-1.8921,4.1426l1.3213,1.502
		c1.4097-1.2405,2.2972-2.954,2.5164-4.7977c3.5078-0.2582,6.5291,2.5607,6.5295,6.0672c0,1.0831-0.3015,2.1219-0.8459,3.0474
		H61.166H13.4731H3.8544C3.3043,22.8224,3,21.7849,3,20.7019C3,17.1979,6.0094,14.3815,9.5219,14.6348z"/>
  <path
    d="M43.5073 14.9294h-2c0 2.4209-1.9692 4.3901-4.3901 4.3901v2C40.6406 21.3196 43.5073 18.4529 43.5073 14.9294zM30.623 17.0896v-2c-2.4209 0-4.3901-1.9692-4.3901-4.3901h-2C24.2329 14.2229 27.0996 17.0896 30.623 17.0896zM51.4233 14.7419v-2c-2.4209 0-4.3901-1.9692-4.3901-4.3896h-2C45.0332 11.8757 47.8999 14.7419 51.4233 14.7419z"/>
  <rect width="2" height="3.646" x="63.934" y="70.046" transform="rotate(175.344 64.932 71.871)"/>
  <polygon points="65.606 92.433 75.047 92.433 75.047 90.433 67.449 90.433 66.287 76.172 64.294 76.334"/>
  <rect width="9.045" height="2" x="79.016" y="53.474"/>
  <rect width="1.889" height="2" x="75.381" y="53.474"/>
</svg>
