<svg xmlns="http://www.w3.org/2000/svg" viewBox="0 0 64 64">
  <path d="M30.98926,57.00293a.99942.99942,0,0,1-1-1v-8a1,1,0,1,1,2,0v8A.99943.99943,0,0,1,30.98926,57.00293Z"/>
  <path
    d="M62.98926,64H27.001a.99942.99942,0,0,1-1-1V41.00488a.99942.99942,0,0,1,1-1H62.98926a.99943.99943,0,0,1,1,1V63A.99943.99943,0,0,1,62.98926,64ZM28.001,62H61.98926V42.00488H28.001Z"/>
  <path
    d="M55.98926 46.00293h-22a1 1 0 010-2h22a1 1 0 010 2zM55.99023 60.002h-22a1 1 0 010-2h22a1 1 0 010 2zM58.99023 57.00488a.99942.99942 0 01-1-1v-7.999a1 1 0 012 0v7.999A.99942.99942 0 0158.99023 57.00488z"/>
  <path
    d="M58.541 49.04785a3.5856 3.5856 0 01-2.44043-.91308 3.72651 3.72651 0 01-1.09375-3.31934.99982.99982 0 011.96582.36621 1.72546 1.72546 0 00.47461 1.47461 1.6624 1.6624 0 001.35742.37207 1.00039 1.00039 0 01.36719 1.9668A3.59222 3.59222 0 0158.541 49.04785zM31.43457 49.03906a3.43894 3.43894 0 01-.6416-.05566 1.00022 1.00022 0 01.39062-1.96192 1.54684 1.54684 0 001.8252-1.8125 1.00518 1.00518 0 01.79394-1.16992.98887.98887 0 011.168.78028 3.67583 3.67583 0 01-.96484 3.18652A3.57064 3.57064 0 0131.43457 49.03906zM33.99121 60.002a1.17335 1.17335 0 01-.12988-.00781 1.00205 1.00205 0 01-.86328-1.12109 1.78269 1.78269 0 00-.48828-1.41211 1.75665 1.75665 0 00-1.39161-.46387 1.0004 1.0004 0 01-.25586-1.98437 3.6765 3.6765 0 014.12012 4.11816A1.0007 1.0007 0 0133.99121 60.002zM55.98926 60.002a.99937.99937 0 01-.99219-.88476 3.68554 3.68554 0 014.11133-4.10547 1.00017 1.00017 0 01-.23633 1.98633 1.827 1.827 0 00-1.4541.52636 1.77973 1.77973 0 00-.43457 1.36231.99944.99944 0 01-.87793 1.1084A.93916.93916 0 0155.98926 60.002zM44.99023 57.00488a5 5 0 115-5A5.00589 5.00589 0 0144.99023 57.00488zm0-8a3 3 0 103 3A3.00329 3.00329 0 0044.99023 49.00488zM51.001 12.999a1.00007 1.00007 0 01-.626-1.78125L55 7.51855v-5.043L51.37109 3.92773a.994.994 0 01-.81836-.03418L46.9541 2.09473l-4.583 1.833a.99381.99381 0 01-.81836-.03418L38 2.11719 34.44727 3.89355a1.00109 1.00109 0 01-.89454 0L29.9541 2.09473l-4.583 1.833a.994.994 0 01-.81836-.03418L20.9541 2.09473l-4.583 1.833a.99412.99412 0 01-.81836-.03418L11.9541 2.09473l-4.583 1.833a.99509.99509 0 01-.74218 0L3 2.47559V7.585l3.707 3.707A.99989.99989 0 015.293 12.70605l-4-4A.99927.99927 0 011 7.999v-7A1.00012 1.00012 0 012.37109.07031L7 1.92188 11.62891.07031a1.00125 1.00125 0 01.81836.03418L16.0459 1.90332l4.583-1.833a1.00125 1.00125 0 01.81836.03418L25.0459 1.90332l4.583-1.833a1.00125 1.00125 0 01.81836.03418L34 1.88086 37.55273.10449a1.00115 1.00115 0 01.89454 0L42.0459 1.90332l4.583-1.833a1.00109 1.00109 0 01.81836.03418L51.0459 1.90332l4.583-1.833A1.00012 1.00012 0 0157 .999v7a.99793.99793 0 01-.375.78028l-5 4.001A.99656.99656 0 0151.001 12.999z"/>
  <path
    d="M6 52.99805a.99943.99943 0 01-1-1V11.999a1 1 0 012 0v39.999A.99943.99943 0 016 52.99805zM51.001 42.001a.99942.99942 0 01-1-1v-29a1 1 0 112 0v29A.99943.99943 0 0151.001 42.001z"/>
  <path
    d="M27.00977 64.001a1.001 1.001 0 01-.44629-.10547l-3.55274-1.77637L19.458 63.89551a1.00113 1.00113 0 01-.89453 0l-3.59864-1.79883-4.583 1.833a.99389.99389 0 01-.81836-.03418L5.96484 62.09668l-4.583 1.833A1.00013 1.00013 0 01.01074 63.001v-7a.99914.99914 0 01.377-.78223c1.21093-.96484 2.4121-1.92969 3.61718-2.89746L5.375 51.2207a1.00242 1.00242 0 111.17676 1.62012L5.25781 53.87988c-1.083.87012-2.16113 1.73633-3.24707 2.60254v5.042l3.62891-1.45214a1.00125 1.00125 0 01.81836.03418l3.59863 1.79882 4.583-1.833a1.00109 1.00109 0 01.81836.03418l3.55273 1.77636 3.55274-1.77636a1.00107 1.00107 0 01.89453 0l4 2a1 1 0 01-.44824 1.89453zM56 8.999H1.999a1 1 0 010-2H56a1 1 0 010 2z"/>
  <path
    d="M27.001 57.001H1.01074a1 1 0 110-2H27.001a1 1 0 010 2zM27.001 45.001h-.5a13.5 13.5 0 110-27h5A13.5034 13.5034 0 0143.03516 38.52051a13.62193 13.62193 0 01-1.98731 2.52832q-.37645.375-.7832.71777a1.00017 1.00017 0 01-1.28711-1.53125c.22851-.1914.44629-.3916.65625-.60156A11.48732 11.48732 0 0043.001 31.501a11.4872 11.4872 0 00-11.5-11.5h-5a11.5 11.5 0 100 23h.5a1 1 0 010 2z"/>
  <path
    d="M25.78711,38.99805c-4.00195,0-8.26367-3.19532-8.75293-6.65821A4.88557,4.88557,0,0,1,17.002,31.543a4.94182,4.94182,0,0,1,2.03321-3.90625,4.6055,4.6055,0,0,1,4.03808-.7207,19.0559,19.0559,0,0,0,7.61328.68847,19.21329,19.21329,0,0,0,5.2334-1.37695,1.0004,1.0004,0,0,1,.95313,1.74707,13.3251,13.3251,0,0,0-3.30274,3.26562,14.7149,14.7149,0,0,0-1.98047,3.9375,4.97434,4.97434,0,0,1-2.334,2.89844,7.662,7.662,0,0,1-3.07129.91211C26.05273,38.99512,25.91992,38.99805,25.78711,38.99805Zm-4.001-10.26856a2.68382,2.68382,0,0,0-1.57519.52442,2.95611,2.95611,0,0,0-1.209,2.34082,2.91,2.91,0,0,0,.0127.46972C19.33008,34.293,22.61621,36.999,25.7832,36.999c.09766,0,.19532-.00293.29395-.00879a5.83875,5.83875,0,0,0,2.24414-.68164,2.98884,2.98884,0,0,0,1.36816-1.75586,16.73122,16.73122,0,0,1,2.252-4.47265q.26806-.37647.55468-.73242-.78809.15234-1.583.24316a21.03772,21.03772,0,0,1-8.40821-.75684A2.51011,2.51011,0,0,0,21.78613,28.72949Z"/>
  <path
    d="M34.42188 37.0166c-.02637 0-.0459.001-.07911 0-.07519 0-.25781-.00195-.502-.02344A6.73 6.73 0 0130.083 35.38281a1.00041 1.00041 0 111.2832-1.53515A4.76033 4.76033 0 0034.01953 35.001a2.46026 2.46026 0 00.34375.01562 4.31616 4.31616 0 003.40625-1.88476 6.1965 6.1965 0 00.65332-1.14258 6.64774 6.64774 0 00.543-2.02637 1.786 1.786 0 00-.77051-1.69531l-.01855-.01172a2.10594 2.10594 0 00-.96-.24121 2.61656 2.61656 0 00-.61524.09082.99958.99958 0 11-.58984-1.91016 3.46219 3.46219 0 011.21582-.18066 4.14787 4.14787 0 011.9375.502 1.0274 1.0274 0 01.09863.06055 3.76886 3.76886 0 011.69043 3.5957 8.61809 8.61809 0 01-.70019 2.62207 8.19334 8.19334 0 01-.85938 1.502A6.24238 6.24238 0 0134.42188 37.0166zM29 15.999a.99845.99845 0 01-.61426-.21093l-9-6.999a1 1 0 111.22852-1.57812L29 13.73242 37.38574 7.21a1 1 0 011.22852 1.57813l-9 7A.99845.99845 0 0129 15.999zM15.82031 38.999H6a1 1 0 010-2h9.82031a1 1 0 010 2zM51 38.999H42.18066a1 1 0 010-2H51a1 1 0 010 2zM51 26.999H42.73047a1 1 0 010-2H51a1 1 0 010 2zM15.27051 26.999H6a1 1 0 010-2h9.27051a1 1 0 110 2zM27.001 51.001h-13a1 1 0 110-2h13a1 1 0 010 2z"/>
</svg>
